<?xml version="1.0" standalone="no"?>
<!DOCTYPE svg PUBLIC "-//W3C//DTD SVG 20010904//EN"
 "http://www.w3.org/TR/2001/REC-SVG-20010904/DTD/svg10.dtd">
<svg version="1.0" xmlns="http://www.w3.org/2000/svg"
 width="700.000000pt" height="700.000000pt" viewBox="0 0 700.000000 700.000000"
 preserveAspectRatio="xMidYMid meet">
<metadata>
Created by potrace 1.14, written by Peter Selinger 2001-2017
</metadata>
<g transform="translate(0.000000,700.000000) scale(0.100000,-0.100000)"
fill="#000000" stroke="none">
<path d="M6008 6825 c-2 -1 -28 -5 -58 -9 -142 -15 -302 -77 -425 -164 -63
-45 -181 -163 -222 -223 -258 -376 -215 -873 103 -1193 38 -37 87 -81 111 -97
24 -17 43 -35 43 -42 0 -7 -12 -52 -26 -102 -14 -49 -29 -103 -34 -120 -4 -16
-29 -104 -55 -194 -26 -90 -48 -169 -50 -175 -1 -6 -5 -18 -8 -26 -3 -8 -69
-240 -147 -515 -78 -275 -146 -513 -151 -530 -5 -16 -36 -124 -69 -239 -32
-114 -61 -211 -65 -214 -3 -3 -35 -7 -71 -8 -177 -5 -341 -54 -486 -146 l-55
-36 -169 140 c-93 77 -178 147 -189 156 -11 10 -144 120 -295 246 -151 126
-291 242 -310 258 -56 47 -113 95 -138 115 l-23 18 21 80 c23 86 34 278 19
343 -4 21 -10 53 -13 72 -8 52 -49 167 -84 235 -150 295 -468 493 -800 500
-125 2 -189 -7 -302 -41 -515 -158 -785 -714 -594 -1222 41 -110 77 -166 197
-316 18 -22 15 -29 -309 -677 -180 -360 -327 -655 -328 -656 -1 -1 -48 -3
-106 -4 -58 -1 -121 -6 -140 -10 -19 -4 -50 -11 -69 -14 -82 -14 -267 -101
-340 -160 -191 -152 -312 -350 -355 -575 -14 -70 -15 -268 -2 -335 31 -168
126 -357 238 -475 290 -303 731 -380 1104 -192 210 106 360 274 458 515 8 20
13 37 11 37 -3 0 0 12 6 27 31 80 44 301 24 408 -25 131 -77 260 -150 369 -40
61 -141 168 -197 210 -21 16 -38 32 -38 37 0 8 607 1229 615 1237 2 2 38 -3
80 -11 257 -48 518 13 726 170 61 46 74 52 87 41 50 -41 1015 -844 1049 -873
l23 -20 -29 -81 c-39 -109 -55 -221 -48 -352 3 -59 7 -116 10 -127 3 -11 11
-42 18 -70 20 -82 68 -185 124 -270 51 -76 151 -185 205 -222 14 -9 27 -20 30
-23 26 -31 204 -115 305 -143 82 -23 307 -32 395 -16 387 70 688 372 759 759
9 49 7 286 -2 337 -22 118 -98 287 -172 383 -60 77 -104 121 -179 180 -36 28
-63 56 -61 63 5 13 223 778 232 812 3 11 26 90 50 175 25 85 52 180 60 210 8
30 26 93 40 140 26 90 161 561 170 595 3 11 16 57 29 101 l24 81 63 2 c210 4
386 64 553 188 176 131 299 321 350 543 26 114 24 317 -5 430 -91 352 -383
625 -739 690 -54 9 -217 21 -224 15z m183 -485 c149 -40 276 -167 323 -322 21
-72 20 -184 -3 -259 -78 -252 -339 -389 -587 -309 -203 65 -328 248 -319 464
5 127 48 222 142 313 115 111 288 155 444 113z m-3747 -1861 c209 -56 352
-234 354 -441 1 -187 -92 -344 -251 -422 -90 -45 -141 -56 -237 -52 -202 10
-373 149 -426 349 -63 235 90 498 326 561 66 18 177 20 234 5z m2570 -1985
c160 -42 284 -163 336 -327 31 -99 10 -258 -48 -357 -56 -97 -164 -181 -277
-214 -56 -17 -172 -20 -231 -5 -215 53 -359 240 -357 464 2 202 138 379 337
436 70 21 169 22 240 3z m-3937 -942 c189 -59 316 -231 322 -437 6 -218 -161
-423 -377 -462 -99 -18 -241 6 -320 55 -150 91 -235 245 -228 414 4 102 8 117
48 198 45 94 168 207 245 225 10 3 43 11 73 18 69 17 159 13 237 -11z"/>
</g>
</svg>
